<svg width="30" height="30" viewBox="0 0 30 30" fill="none" xmlns="http://www.w3.org/2000/svg">
<path id="Vector" d="M19.2031 15.3955C18.9948 15.6494 18.8177 15.918 18.6719 16.2012C18.526 16.4844 18.401 16.7871 18.2969 17.1094C17.401 16.4258 16.4167 15.9033 15.3438 15.542C14.2708 15.1807 13.1562 15 12 15C11.0833 15 10.1979 15.1123 9.34375 15.3369C8.48958 15.5615 7.69271 15.874 6.95312 16.2744C6.21354 16.6748 5.54167 17.1631 4.9375 17.7393C4.33333 18.3154 3.8125 18.9502 3.375 19.6436C2.9375 20.3369 2.59896 21.084 2.35938 21.8848C2.11979 22.6855 2 23.5156 2 24.375H0C0 23.2031 0.182292 22.0752 0.546875 20.9912C0.911458 19.9072 1.4375 18.9062 2.125 17.9883C2.8125 17.0703 3.625 16.2549 4.5625 15.542C5.5 14.8291 6.5625 14.2676 7.75 13.8574C7.16667 13.5156 6.64583 13.1152 6.1875 12.6562C5.72917 12.1973 5.33333 11.6895 5 11.1328C4.66667 10.5762 4.42188 9.99512 4.26562 9.38965C4.10938 8.78418 4.02083 8.1543 4 7.5C4 6.46484 4.20833 5.49316 4.625 4.58496C5.04167 3.67676 5.61458 2.88574 6.34375 2.21191C7.07292 1.53809 7.92188 1.00098 8.89062 0.600586C9.85938 0.200195 10.8958 0 12 0C13.1042 0 14.1406 0.195313 15.1094 0.585938C16.0781 0.976562 16.9219 1.51367 17.6406 2.19727C18.3594 2.88086 18.9323 3.67676 19.3594 4.58496C19.7865 5.49316 20 6.46484 20 7.5C20 8.14453 19.9167 8.77441 19.75 9.38965C19.5833 10.0049 19.3333 10.5859 19 11.1328C18.6667 11.6797 18.2708 12.1826 17.8125 12.6416C17.3542 13.1006 16.8281 13.5059 16.2344 13.8574C17.3177 14.248 18.3073 14.7607 19.2031 15.3955ZM6 7.5C6 8.28125 6.15625 9.00879 6.46875 9.68262C6.78125 10.3564 7.20833 10.9521 7.75 11.4697C8.29167 11.9873 8.92708 12.3926 9.65625 12.6855C10.3854 12.9785 11.1667 13.125 12 13.125C12.8229 13.125 13.599 12.9785 14.3281 12.6855C15.0573 12.3926 15.6927 11.9922 16.2344 11.4844C16.776 10.9766 17.2083 10.3809 17.5312 9.69727C17.8542 9.01367 18.0104 8.28125 18 7.5C18 6.72852 17.8438 6.00098 17.5312 5.31738C17.2188 4.63379 16.7917 4.03809 16.25 3.53027C15.7083 3.02246 15.0677 2.61719 14.3281 2.31445C13.5885 2.01172 12.8125 1.86523 12 1.875C11.1667 1.875 10.3906 2.02148 9.67188 2.31445C8.95312 2.60742 8.31771 3.00781 7.76562 3.51562C7.21354 4.02344 6.78125 4.62402 6.46875 5.31738C6.15625 6.01074 6 6.73828 6 7.5ZM30 20.625V30H18V20.625H20V18.75C20 18.2324 20.1042 17.749 20.3125 17.2998C20.5208 16.8506 20.8073 16.4502 21.1719 16.0986C21.5365 15.7471 21.9583 15.4785 22.4375 15.293C22.9167 15.1074 23.4375 15.0098 24 15C24.5521 15 25.0677 15.0977 25.5469 15.293C26.026 15.4883 26.4531 15.7568 26.8281 16.0986C27.2031 16.4404 27.4896 16.8359 27.6875 17.2852C27.8854 17.7344 27.9896 18.2227 28 18.75V20.625H30ZM22 20.625H26V18.75C26 18.4863 25.9479 18.2422 25.8438 18.0176C25.7396 17.793 25.599 17.5977 25.4219 17.4316C25.2448 17.2656 25.0312 17.1289 24.7812 17.0215C24.5312 16.9141 24.2708 16.8652 24 16.875C23.7188 16.875 23.4583 16.9238 23.2188 17.0215C22.9792 17.1191 22.7708 17.251 22.5938 17.417C22.4167 17.583 22.2708 17.7832 22.1562 18.0176C22.0417 18.252 21.9896 18.4961 22 18.75V20.625ZM28 22.5H20V28.125H28V22.5Z" fill="black" style="fill:black;fill-opacity:1;"/>
</svg>
