<svg width="27" height="29" viewBox="0 0 27 29" fill="none" xmlns="http://www.w3.org/2000/svg">
<path id="Vector" fill-rule="evenodd" clip-rule="evenodd" d="M3.63741 6.25391H2.16166L0 3.60609L1.47575 1.84087L2.90993 3.55565L5.84065 0L7.3164 1.79043L3.63741 6.25391ZM10.3718 2.52174H27V5.04348H10.3718V2.52174ZM10.3718 10.087H27V12.6087H10.3718V10.087ZM27 17.6522H10.3718V20.1739H27V17.6522ZM10.3718 25.2174H27V27.7391H10.3718V25.2174ZM2.16166 13.8191H3.63741L7.3164 9.35565L5.84065 7.59044L2.90993 11.1461L1.47575 9.40609L0 11.1965L2.16166 13.8191ZM3.63741 21.4096H2.16166L0 18.787L1.47575 16.9965L2.90993 18.7365L5.84065 15.1557L7.3164 16.9461L3.63741 21.4096ZM2.16166 29H3.63741L7.3164 24.5365L5.84065 22.7461L2.90993 26.327L1.47575 24.587L0 26.3522L2.16166 29Z" fill="black" style="fill:black;fill-opacity:1;"/>
</svg>
